# xmcd CD database file
#
# Track frame offsets:
#	150
#	11685
#	28718
#	48415
#	62420
#	80115
#	98580
#	113118
#	126553
#	141523
#	157658
#	174035
#	192643
#	205960
#
# Disc length: 2951 seconds
#
# Revision: 0
# Processed by: cddbd v1.5.2PL0 Copyright (c) Steve Scherf et al.
# Submitted via: CDex 1.51
#
DISCID=bd0b850e
DTITLE=Bruno and Marrone 30 anos - 30 anos
DYEAR=2006
DGENRE=Country
TTITLE0=O campeão
TTITLE1=Meu segredo
TTITLE2=Faz de conta
TTITLE3=Rei do rodeio
TTITLE4=Machuca demais
TTITLE5=Fruto especial
TTITLE6=Pela porta da frente
TTITLE7=Tô machucado
TTITLE8=Sozinho na noite
TTITLE9=Como ficar sem voce
TTITLE10=Esta noite eu queria que o mundo acabasse
TTITLE11=Mil razões para chorar
TTITLE12=Goiás é mais
TTITLE13=Dormi na praça
EXTD=YEAR: 2006
EXTT0=
EXTT1=
EXTT2=
EXTT3=
EXTT4=
EXTT5=
EXTT6=
EXTT7=
EXTT8=
EXTT9=
EXTT10=
EXTT11=
EXTT12=
EXTT13=
PLAYORDER=
